<svg xmlns="http://www.w3.org/2000/svg" viewBox="0 0 640 720" width="640" height="720" role="img" aria-label="Minimal caricature of Saba Azadegan">
<style>
.tw{animation:tw 3s ease-in-out infinite;transform-box:fill-box;transform-origin:center}
@keyframes tw{0%,100%{opacity:.2;transform:scale(.5)}50%{opacity:1;transform:scale(1.15)}}
.fl{animation:fl 6s ease-in-out infinite;transform-box:fill-box;transform-origin:center}
@keyframes fl{0%,100%{transform:translateY(0) scale(1)}50%{transform:translateY(-16px) scale(1.12)}}
.ring{animation:spin 40s linear infinite;transform-box:fill-box;transform-origin:center}
@keyframes spin{to{transform:rotate(360deg)}}
.sway{animation:sway 6s ease-in-out infinite;transform-box:fill-box;transform-origin:50% 100%}
@keyframes sway{0%,100%{transform:rotate(-1deg) translateY(0)}50%{transform:rotate(1deg) translateY(-6px)}}
.eye{animation:blink 5.5s infinite}
@keyframes blink{0%,90%,100%{transform:scaleY(1)}94%{transform:scaleY(.08)}}
</style>
<defs>
<linearGradient id="bg" x1="0" y1="0" x2="1" y2="1"><stop offset="0" stop-color="#FFD9EA"/><stop offset=".55" stop-color="#E4D5FF"/><stop offset="1" stop-color="#BFD3FF"/></linearGradient>
<linearGradient id="ringg" x1="0" y1="0" x2="1" y2="1"><stop offset="0" stop-color="#FF7BA9"/><stop offset="1" stop-color="#7B4FC9"/></linearGradient>
<clipPath id="clip"><circle cx="320" cy="360" r="300"/></clipPath>
</defs>
<circle cx="320" cy="360" r="300" fill="url(#bg)"/>
<circle class="ring" cx="320" cy="360" r="318" fill="none" stroke="url(#ringg)" stroke-width="3" stroke-dasharray="3 14" stroke-linecap="round"/>
<g transform="translate(78 160)"><path class="tw" d="M0,-1 C0.12,-0.3 0.3,-0.12 1,0 C0.3,0.12 0.12,0.3 0,1 C-0.12,0.3 -0.3,0.12 -1,0 C-0.3,-0.12 -0.12,-0.3 0,-1Z" fill="#fff" transform="scale(15)" style="animation-delay:-0s"/></g>
<g transform="translate(566 214)"><path class="tw" d="M0,-1 C0.12,-0.3 0.3,-0.12 1,0 C0.3,0.12 0.12,0.3 0,1 C-0.12,0.3 -0.3,0.12 -1,0 C-0.3,-0.12 -0.12,-0.3 0,-1Z" fill="#FFB3D1" transform="scale(11)" style="animation-delay:-1.2s"/></g>
<g transform="translate(556 520)"><path class="tw" d="M0,-1 C0.12,-0.3 0.3,-0.12 1,0 C0.3,0.12 0.12,0.3 0,1 C-0.12,0.3 -0.3,0.12 -1,0 C-0.3,-0.12 -0.12,-0.3 0,-1Z" fill="#fff" transform="scale(13)" style="animation-delay:-0.6s"/></g>
<g transform="translate(95 585)"><path class="fl" d="M0,0.9 C-1.5,-0.1 -0.9,-1.1 0,-0.4 C0.9,-1.1 1.5,-0.1 0,0.9Z" fill="#FF7BA9" transform="scale(13)"/></g>
<g transform="translate(560 410)"><path class="fl" style="animation-delay:-4s" d="M0,0.9 C-1.5,-0.1 -0.9,-1.1 0,-0.4 C0.9,-1.1 1.5,-0.1 0,0.9Z" fill="#FFB3D1" transform="scale(10)"/></g>
<g clip-path="url(#clip)"><g class="sway">
<ellipse cx="320" cy="262" rx="146" ry="150" fill="#3B241F"/>
<circle cx="346" cy="124" r="48" fill="#3B241F"/>
<path d="M314,118 Q346,94 380,114" fill="none" stroke="#5E3C31" stroke-width="6" stroke-linecap="round" opacity=".8"/>
<rect x="300" y="160" width="58" height="11" rx="5.5" fill="#E8607A" transform="rotate(-8 329 165)"/>
<path d="M236,512 C196,516 150,528 126,566 C108,596 104,650 100,740 L170,740 C176,680 184,630 204,596 C214,578 232,566 252,560Z" fill="#F4CDAA"/>
<path d="M404,512 C444,516 490,528 514,566 C532,596 536,650 540,740 L470,740 C464,680 456,630 436,596 C426,578 408,566 388,560Z" fill="#F4CDAA"/>
<path d="M150,586 C170,578 196,590 206,612" fill="none" stroke="#E6B08C" stroke-width="5" stroke-linecap="round" opacity=".8"/>
<path d="M490,586 C470,578 444,590 434,612" fill="none" stroke="#E6B08C" stroke-width="5" stroke-linecap="round" opacity=".8"/>
<path d="M236,512 Q264,500 282,498 L358,498 Q376,500 404,512 L430,560 L460,740 L180,740 L210,560Z" fill="#F4CDAA"/>
<path d="M236,512 Q264,500 282,498 L358,498 Q376,500 404,512 L420,560 L220,560Z" fill="#F4CDAA"/>
<path d="M222,740 L228,596 Q236,566 262,552 L282,500 Q320,560 358,500 L378,552 Q404,566 412,596 L418,740Z" fill="#201C28"/>
<path d="M280,430 L280,512 Q320,548 360,512 L360,430Z" fill="#F4CDAA"/>
<path d="M280,430 L280,455 Q320,492 360,455 L360,430Z" fill="#E6B08C"/>
<path d="M264,500 Q320,545 376,500 L350,560 Q320,590 290,560Z" fill="#F4CDAA"/>
<path d="M264,502 Q320,552 376,502" fill="none" stroke="#F3C878" stroke-width="3"/>
<line x1="320" y1="540" x2="320" y2="560" stroke="#F3C878" stroke-width="3"/>
<circle cx="320" cy="570" r="12" fill="#F3C878"/>
<path d="M320,160 C412,160 440,232 436,300 C432,372 388,452 320,464 C252,452 208,372 204,300 C200,232 228,160 320,160Z" fill="#F4CDAA"/>
<path d="M204,300 C196,214 244,150 322,148 C406,146 448,214 436,300 C430,262 420,236 398,222 C350,236 288,214 252,206 C222,226 208,258 204,300Z" fill="#3B241F"/>
<path d="M322,300 C320,340 312,364 304,382 Q320,394 338,382" fill="none" stroke="#E6B08C" stroke-width="5" stroke-linecap="round" stroke-linejoin="round"/>
</g></g>
</svg>
